<?xml version="1.0" encoding="utf-8"?>
<svg x="0pt" y="0pt" width="150pt" height="150pt" viewBox="0 0 150 150" xmlns="http://www.w3.org/2000/svg" xmlns:xlink="http://www.w3.org/1999/xlink">
  <g id="1">
    <title>Layer 1</title>
    <defs>
      <title>Smart Rectangle</title>
      <g id="2">
        <defs>
          <path id="3" d="M150,16.4327 C150,25.2693,142.837,32.4327,134,32.4327 C134,32.4327,16,32.4327,16,32.4327 C7.16344,32.4327,2.80398e-06,25.2693,1.85031e-06,16.4327 C1.85031e-06,16.4327,1.85031e-06,16,1.85031e-06,16 C2.80398e-06,7.16344,7.16344,1.9378e-14,16,1.9378e-14 C16,1.9378e-14,134,1.9378e-14,134,1.9378e-14 C142.837,9.53674e-07,150,7.16344,150,16 C150,16,150,16.4327,150,16.4327 z"/>
        </defs>
        <use xlink:href="#3" style="fill:#001d2b;fill-opacity:1;fill-rule:nonzero;opacity:1;stroke:none;"/>
      </g>
    </defs>
    <use xlink:href="#2"/>
    <defs>
      <title>Smart Rectangle</title>
      <g id="4">
        <defs>
          <path id="5" d="M150,75.2164 C150,84.0529,142.837,91.2164,134,91.2164 C134,91.2164,16,91.2164,16,91.2164 C7.16344,91.2164,2.80398e-06,84.0529,1.85031e-06,75.2164 C1.85031e-06,75.2164,1.85031e-06,74.7836,1.85031e-06,74.7836 C2.80398e-06,65.9471,7.16344,58.7836,16,58.7836 C16,58.7836,134,58.7836,134,58.7836 C142.837,58.7836,150,65.9471,150,74.7836 C150,74.7836,150,75.2164,150,75.2164 z"/>
        </defs>
        <use xlink:href="#5" style="fill:#001d2b;fill-opacity:1;fill-rule:nonzero;opacity:1;stroke:none;"/>
      </g>
    </defs>
    <use xlink:href="#4"/>
    <defs>
      <title>Smart Rectangle</title>
      <g id="6">
        <defs>
          <path id="7" d="M150,134 C150,142.837,142.837,150,134,150 C134,150,16,150,16,150 C7.16344,150,2.80398e-06,142.837,1.85031e-06,134 C1.85031e-06,134,1.85031e-06,133.567,1.85031e-06,133.567 C2.80398e-06,124.731,7.16344,117.567,16,117.567 C16,117.567,134,117.567,134,117.567 C142.837,117.567,150,124.731,150,133.567 C150,133.567,150,134,150,134 z"/>
        </defs>
        <use xlink:href="#7" style="fill:#001d2b;fill-opacity:1;fill-rule:nonzero;opacity:1;stroke:none;"/>
      </g>
    </defs>
    <use xlink:href="#6"/>
  </g>
</svg>
